<?xml version="1.0" standalone="no"?><!DOCTYPE svg PUBLIC "-//W3C//DTD SVG 1.1//EN" "http://www.w3.org/Graphics/SVG/1.1/DTD/svg11.dtd"><svg t="1692863464899" class="icon" viewBox="0 0 1024 1024" version="1.1" xmlns="http://www.w3.org/2000/svg" p-id="5833" xmlns:xlink="http://www.w3.org/1999/xlink" width="128" height="128"><path d="M68.608 660.992c13.6192-34.2016 42.2912-102.4 60.7232-129.2288 102.4 96.9728 221.4912 218.112 259.3792 265.216-54.3744-104.0384-172.4416-239.5136-238.4896-317.44C89.4976 409.6 86.528 398.6432 131.6864 368.64c29.184-19.0464 88.8832-44.6464 113.152-56.1152 57.344 153.6 113.664 317.44 128.7168 389.632-2.8672-125.952-60.7232-317.44-81.92-416.768-10.24-51.2-21.9136-74.1376 35.4304-76.0832 32.5632-0.9216 101.4784-6.656 149.0944-2.8672-27.2384 164.4544-70.4512 364.032-91.3408 431.0016 57.344-108.3392 103.936-316.5184 142.336-421.0688 15.0528-40.3456 8.2944-57.9584 89.9072-36.5568l146.2272 37.9904c-85.504 107.4176-194.56 256-298.7008 352.1536 98.0992-68.4032 245.76-223.3344 322.56-301.7728C819.2 235.52 826.368 231.424 863.744 265.6256c44.6464 40.96 104.96 88.8832 158.3104 115.5072-20.48-26.624-90.8288-100.7616-143.36-168.2432-48.128-61.44-74.8544-45.1584-94.72-17.6128-32.5632-16.1792-120.9344-46.08-185.0368-69.4272-107.4176-39.936-102.912-8.0896-116.5312 31.4368-45.6704-2.3552-138.4448-1.9456-189.952-1.4336-69.9392 0-81.92 28.4672-77.2096 67.4816 1.4336 10.9568 8.2944 32.3584 10.24 40.96a1376.1536 1376.1536 0 0 0-150.6304 81.1008c-37.376 25.7024-59.6992 55.6032-19.8656 101.1712 4.8128 5.2224 27.648 40.3456 32.0512 44.6464-19.968 45.2608-48.64 96.5632-67.9936 147.456-24.7808 66.56-27.648 102.4 20.48 120.2176C190.464 813.9776 409.088 880.64 473.7024 909.5168c-96.256-70.8608-281.8048-128.3072-372.1216-177.2544C61.44 710.4512 55.3984 694.6816 68.608 660.992z m812.6464-74.6496c-11.6736-19.456-26.7264-41.7792-44.2368-69.8368-13.6192-21.8112-27.648-46.08-44.6464-74.1376-16.9984 28.0576-32.0512 52.224-45.6704 74.1376-17.92 28.0576-33.0752 50.3808-44.6464 69.8368l-92.16 142.1312a72.8064 72.8064 0 0 0 3.8912 65.536A78.6432 78.6432 0 0 0 672.8704 839.68c40.96 9.5232 72.3968-4.7104 94.208-42.2912a84.5824 84.5824 0 0 1-9.3184 60.3136 133.12 133.12 0 0 1-45.1584 51.8144h156.4672a123.904 123.904 0 0 1-44.2368-51.8144 86.2208 86.2208 0 0 1-8.704-60.3136c21.8112 37.5808 52.9408 51.8144 93.7984 42.2912a81.92 81.92 0 0 0 59.2896-45.6704 79.4624 79.4624 0 0 0 3.3792-65.536z" p-id="5834"></path></svg>